<?xml version="1.0" encoding="UTF-8"?>
<svg xmlns="http://www.w3.org/2000/svg" xmlns:xlink="http://www.w3.org/1999/xlink" width="1320pt" height="1320pt" viewBox="0 0 1320 1320" version="1.1">
<defs>
<clipPath id="clip1">
  <path d="M 70 181 L 1104 181 L 1104 660 L 70 660 Z M 70 181 "/>
</clipPath>
</defs>
<g id="surface1759">
<path style=" stroke:none;fill-rule:nonzero;fill:rgb(10%,66%,35%);fill-opacity:1;" d="M 1103.40625 255.78125 C 750 300 540 330 298.417969 181.191406 C 179.078125 271.3125 97.695312 402.75 70.214844 549.75 C 300 450 540 480 600 480 C 570 630 510 900 298.417969 1138.808594 L 900 1138.808594 C 450 960 600 420 1103.40625 255.78125 Z M 1103.40625 255.78125 "/>
<path style=" stroke:none;fill-rule:nonzero;fill:rgb(10%,33%,67%);fill-opacity:1;" d="M 216.59375 1064.21875 L 1103.40625 1064.21875 C 1230.167969 925.167969 1284.359375 734.703125 1249.785156 549.75 C 1020 870 780 840 720 870 C 750 690 810 420 1021.582031 181.191406 C 810 210 540 162 392.558594 122.902344 C 870 330 720 900 216.59375 1064.21875 Z M 216.59375 1064.21875 "/>
<g clip-path="url(#clip1)" clip-rule="nonzero">
<path style=" stroke:none;fill-rule:nonzero;fill:rgb(10%,66%,35%);fill-opacity:1;" d="M 1103.40625 255.78125 C 750 300 540 330 298.417969 181.191406 C 179.078125 271.3125 97.695312 402.75 70.214844 549.75 C 300 450 540 480 600 480 C 570 630 510 900 298.417969 1138.808594 L 900 1138.808594 C 450 960 600 420 1103.40625 255.78125 Z M 1103.40625 255.78125 "/>
</g>
</g>
</svg>
